<svg width="173" height="44" viewBox="0 0 173 44" fill="none" xmlns="http://www.w3.org/2000/svg">
<path d="M153.89 25.6324L159.595 11.2713L163.744 13.0135L157.486 27.1424L153.89 25.6324ZM150.942 31.8781L152.684 27.7291L156.833 29.4714L155.091 33.6204L150.942 31.8781Z" fill="#007AFF"/>
<path d="M20.5992 33.2524C19.1902 33.2524 17.8127 33.0841 16.4667 32.7476C15.1208 32.3901 14.0482 31.9485 13.2491 31.4227L14.8895 27.8896C15.6466 28.3733 16.5614 28.7729 17.6339 29.0883C18.7065 29.3828 19.758 29.53 20.7885 29.53C22.8705 29.53 23.9115 29.0147 23.9115 27.9842C23.9115 27.5005 23.6276 27.1535 23.0598 26.9432C22.492 26.7329 21.6192 26.5542 20.4415 26.4069C19.0535 26.1966 17.9073 25.9548 17.003 25.6814C16.0987 25.408 15.3101 24.9243 14.6371 24.2303C13.9851 23.5363 13.6592 22.5479 13.6592 21.265C13.6592 20.1924 13.9641 19.2461 14.574 18.4259C15.2049 17.5847 16.1092 16.9327 17.2869 16.47C18.4857 16.0074 19.8947 15.776 21.5141 15.776C22.7128 15.776 23.901 15.9127 25.0787 16.1861C26.2775 16.4385 27.2659 16.796 28.044 17.2587L26.4036 20.7603C24.9105 19.919 23.2806 19.4984 21.5141 19.4984C20.4625 19.4984 19.6739 19.6456 19.1481 19.9401C18.6224 20.2345 18.3595 20.6131 18.3595 21.0757C18.3595 21.6015 18.6434 21.9695 19.2112 22.1798C19.779 22.3901 20.6834 22.5899 21.9241 22.7792C23.3122 23.0105 24.4478 23.2629 25.3311 23.5363C26.2144 23.7887 26.982 24.2618 27.6339 24.9558C28.2859 25.6498 28.6118 26.6173 28.6118 27.858C28.6118 28.9096 28.2964 29.8454 27.6655 30.6656C27.0346 31.4858 26.1092 32.1272 24.8894 32.5899C23.6907 33.0315 22.2606 33.2524 20.5992 33.2524ZM38.9352 29.3092C39.8185 29.3092 40.5966 29.183 41.2696 28.9306C41.9636 28.6572 42.605 28.2366 43.1938 27.6688L45.8121 30.5079C44.2138 32.3375 41.8794 33.2524 38.809 33.2524C36.8952 33.2524 35.2023 32.8843 33.7301 32.1483C32.258 31.3912 31.1224 30.3502 30.3232 29.0252C29.524 27.7003 29.1245 26.1966 29.1245 24.5142C29.1245 22.8528 29.5135 21.3596 30.2916 20.0347C31.0908 18.6888 32.1739 17.6478 33.5409 16.9117C34.9289 16.1546 36.4851 15.776 38.2096 15.776C39.829 15.776 41.3011 16.123 42.626 16.817C43.9509 17.49 45.0025 18.4785 45.7806 19.7823C46.5798 21.0652 46.9793 22.5899 46.9793 24.3565L34.4241 26.7855C34.7817 27.6267 35.339 28.2576 36.0961 28.6782C36.8742 29.0988 37.8206 29.3092 38.9352 29.3092ZM38.2096 19.4984C36.9688 19.4984 35.9594 19.898 35.1812 20.6972C34.4031 21.4963 33.993 22.6004 33.951 24.0095L42.2159 22.4006C41.9846 21.5174 41.5114 20.8128 40.7964 20.2871C40.0813 19.7613 39.2191 19.4984 38.2096 19.4984ZM59.2462 32.1798C58.7625 32.5373 58.1631 32.8107 57.4481 33C56.7541 33.1682 56.0285 33.2524 55.2714 33.2524C53.2315 33.2524 51.6647 32.7371 50.5711 31.7066C49.4775 30.6761 48.9307 29.1619 48.9307 27.164V12.2745H53.8519V16.407H58.0474V20.1924H53.8519V27.101C53.8519 27.816 54.0306 28.3733 54.3881 28.7729C54.7457 29.1514 55.2609 29.3407 55.9339 29.3407C56.691 29.3407 57.3639 29.1304 57.9528 28.7098L59.2462 32.1798ZM77.8616 16.0284V33H73.1928V30.9811C72.5409 31.7171 71.7628 32.285 70.8585 32.6845C69.9541 33.0631 68.9762 33.2524 67.9247 33.2524C65.6955 33.2524 63.9289 32.6109 62.625 31.3281C61.3211 30.0452 60.6692 28.142 60.6692 25.6183V16.0284H65.5903V24.8928C65.5903 27.6267 66.7365 28.9937 69.0288 28.9937C70.2065 28.9937 71.1529 28.6151 71.8679 27.858C72.5829 27.0799 72.9405 25.9338 72.9405 24.4196V16.0284H77.8616ZM79.897 39.3722C78.1725 39.3722 76.8581 39.0568 75.9538 38.4259L77.2787 34.8612C77.8466 35.2608 78.5406 35.4606 79.3608 35.4606C79.9917 35.4606 80.4859 35.2503 80.8434 34.8297C81.2009 34.4301 81.3797 33.8202 81.3797 33V16.0284H86.3008V32.9685C86.3008 34.9453 85.733 36.5016 84.5973 37.6372C83.4827 38.7939 81.916 39.3722 79.897 39.3722ZM83.8403 13.6625C82.9359 13.6625 82.1999 13.3996 81.6321 12.8738C81.0642 12.3481 80.7803 11.6961 80.7803 10.918C80.7803 10.1399 81.0642 9.48793 81.6321 8.96217C82.1999 8.4364 82.9359 8.17352 83.8403 8.17352C84.7446 8.17352 85.4806 8.42589 86.0485 8.93062C86.6163 9.43535 86.9002 10.0663 86.9002 10.8234C86.9002 11.6436 86.6163 12.327 86.0485 12.8738C85.4806 13.3996 84.7446 13.6625 83.8403 13.6625ZM106.668 16.0284V33H101.999V30.9811C101.347 31.7171 100.569 32.285 99.6649 32.6845C98.7605 33.0631 97.7826 33.2524 96.7311 33.2524C94.5019 33.2524 92.7353 32.6109 91.4314 31.3281C90.1275 30.0452 89.4756 28.142 89.4756 25.6183V16.0284H94.3967V24.8928C94.3967 27.6267 95.5429 28.9937 97.8352 28.9937C99.0129 28.9937 99.9593 28.6151 100.674 27.858C101.389 27.0799 101.747 25.9338 101.747 24.4196V16.0284H106.668ZM127.189 16.0284V33H122.489V31.0442C121.269 32.5163 119.503 33.2524 117.189 33.2524C115.591 33.2524 114.14 32.8948 112.836 32.1798C111.553 31.4648 110.544 30.4448 109.808 29.1199C109.071 27.795 108.703 26.2597 108.703 24.5142C108.703 22.7687 109.071 21.2334 109.808 19.9085C110.544 18.5836 111.553 17.5636 112.836 16.8486C114.14 16.1336 115.591 15.776 117.189 15.776C119.355 15.776 121.048 16.4595 122.268 17.8265V16.0284H127.189ZM118.041 29.2145C119.282 29.2145 120.312 28.7939 121.132 27.9527C121.953 27.0904 122.363 25.9443 122.363 24.5142C122.363 23.0841 121.953 21.9485 121.132 21.1073C120.312 20.245 119.282 19.8139 118.041 19.8139C116.779 19.8139 115.738 20.245 114.918 21.1073C114.098 21.9485 113.688 23.0841 113.688 24.5142C113.688 25.9443 114.098 27.0904 114.918 27.9527C115.738 28.7939 116.779 29.2145 118.041 29.2145ZM140.799 15.776C142.902 15.776 144.595 16.407 145.878 17.6688C147.182 18.9306 147.834 20.8023 147.834 23.2839V33H142.913V24.041C142.913 22.6951 142.618 21.6961 142.029 21.0442C141.44 20.3712 140.589 20.0347 139.474 20.0347C138.233 20.0347 137.245 20.4238 136.509 21.2019C135.773 21.959 135.405 23.0946 135.405 24.6088V33H130.484V16.0284H135.184V18.0158C135.836 17.3008 136.645 16.754 137.613 16.3754C138.58 15.9758 139.642 15.776 140.799 15.776Z" fill="#007AFF"/>
</svg>
